<svg viewBox="99.56 55.969 848.88 607.292" xmlns="http://www.w3.org/2000/svg" overflow="visible">
    <rect id="Blush Background Color" fill="#d859ff" x="99.56" y="55.969" width="848.88" height="607.292"/>
    <g id="Master/Scene/3 Characters" stroke="none" stroke-width="1" fill="none" fill-rule="evenodd">
        <g id="Background" transform="scale(1 1)">
            <g id="Background/Wireframe 2" stroke="none" stroke-width="1" fill="none" fill-rule="evenodd">
                <g id="Mobile3" transform="translate(723.000000, 91.000000)">
                    <rect id="Container" fill="#C7D1D9" x="0" y="0" width="147" height="280" rx="8"/>
                    <circle id="Touch" fill="#FFF" cx="73" cy="248" r="15"/>
                    <g id="Camera" transform="translate(58.000000, 15.000000)" fill="#FFF">
                        <circle id="Lens" cx="2" cy="2" r="2"/>
                        <rect id="Sensor" x="9" y="0" width="21" height="4" rx="2"/>
                    </g>
                    <g id="Rows" transform="translate(14.000000, 28.000000)">
                        <g id="Row">
                            <rect id="Container" fill="#FFF" x="0" y="0" width="119" height="50.765" rx="4"/>
                            <g id="Text-Stuff" transform="translate(9.000000, 15.228000)" fill="#C7D1D9">
                                <rect id="Label" x="0" y="0" width="61" height="7.614" rx="3"/>
                                <rect id="Label" x="0" y="12.69" width="40.945" height="7.614" rx="3"/>
                            </g>
                            <g id="Check" transform="translate(99.282443, 18.380000)">
                                <circle id="Background" fill="#C7D1D9" cx="7" cy="7" r="7"/>
                                <circle id="Indicator" fill="#F2F2F2" cx="7" cy="7" r="3"/>
                            </g>
                        </g>
                        <g id="Row" transform="translate(0.000000, 59.000000)">
                            <rect id="Background" fill="#FFF" x="0" y="0" width="119" height="37.706" rx="4"/>
                            <g id="Text" transform="translate(39.000000, 11.314027)" fill="#C7D1D9">
                                <rect id="Name" x="0" y="0" width="61" height="5.657" rx="2.829"/>
                                <rect id="Name" x="0" y="9.428" width="40.945" height="5.657" rx="2.829"/>
                            </g>
                            <circle id="Avatar" fill="#C5CFD6" cx="21" cy="18.857" r="12"/>
                        </g>
                        <g id="Row" transform="translate(0.000000, 105.000000)">
                            <rect id="Container" fill="#FFF" x="0" y="0" width="119" height="37.706" rx="4"/>
                            <g id="Text-Stuff" transform="translate(9.000000, 11.314027)" fill="#C7D1D9">
                                <rect id="Label" x="0" y="0" width="61" height="5.657" rx="2.829"/>
                                <rect id="Label" x="0" y="9.428" width="40.945" height="5.657" rx="2.829"/>
                            </g>
                            <g id="Check" transform="translate(99.282443, 11.856712)">
                                <circle id="Background" fill="#C7D1D9" cx="7" cy="7" r="7"/>
                                <circle id="Indicator" fill="#F2F2F2" cx="7" cy="7" r="3"/>
                            </g>
                        </g>
                        <g id="Row" transform="translate(0.000000, 151.000000)">
                            <rect id="Background" fill="#FFF" x="0" y="0" width="119" height="37.706" rx="4"/>
                            <g id="Text" transform="translate(39.000000, 11.314027)" fill="#C7D1D9">
                                <rect id="Name" x="0" y="0" width="61" height="5.657" rx="2.829"/>
                                <rect id="Name" x="0" y="9.428" width="40.945" height="5.657" rx="2.829"/>
                            </g>
                            <circle id="Avatar" fill="#C5CFD6" cx="21" cy="18.857" r="12"/>
                        </g>
                    </g>
                </g>
                <g id="Mobile3" transform="translate(219.000000, 114.000000)">
                    <rect id="Container" fill="#F2F2F2" x="0" y="0" width="159" height="302" rx="8"/>
                    <circle id="Touch" fill="#FFF" cx="79" cy="268" r="15"/>
                    <g id="Camera" transform="translate(64.000000, 16.000000)" fill="#FFF">
                        <circle id="Lens" cx="2" cy="2" r="2"/>
                        <rect id="Sensor" x="9" y="0" width="21" height="4" rx="2"/>
                    </g>
                    <g id="Rows" transform="translate(14.000000, 28.000000)">
                        <g id="Row">
                            <rect id="Background" fill="#FFF" x="0" y="0" width="131" height="54" rx="4"/>
                            <g id="Text" transform="translate(39.000000, 16.200000)" fill="#C7D1D9">
                                <rect id="Name" x="0" y="0" width="73" height="8.1" rx="3"/>
                                <rect id="Name" x="0" y="13.5" width="49" height="8.1" rx="3"/>
                            </g>
                            <circle id="Avatar" fill="#C5CFD6" cx="21" cy="27" r="12"/>
                        </g>
                        <g id="Row" transform="translate(0.000000, 62.000000)">
                            <rect id="Background" fill="#FFF" x="0" y="0" width="131" height="42" rx="4"/>
                            <g id="Text" transform="translate(39.000000, 12.600000)" fill="#C7D1D9">
                                <rect id="Name" x="0" y="0" width="73" height="6.3" rx="3"/>
                                <rect id="Name" x="0" y="10.5" width="49" height="6.3" rx="3"/>
                            </g>
                            <circle id="Avatar" fill="#C5CFD6" cx="21" cy="21" r="12"/>
                        </g>
                        <g id="Row" transform="translate(0.000000, 112.000000)">
                            <rect id="Background" fill="#FFF" x="0" y="0" width="131" height="42" rx="4"/>
                            <g id="Text" transform="translate(39.000000, 12.600000)" fill="#C7D1D9">
                                <rect id="Name" x="0" y="0" width="73" height="6.3" rx="3"/>
                                <rect id="Name" x="0" y="10.5" width="49" height="6.3" rx="3"/>
                            </g>
                            <circle id="Avatar" fill="#AFB9C5" cx="21" cy="21" r="12"/>
                        </g>
                        <g id="Row" transform="translate(0.000000, 162.000000)">
                            <rect id="Background" fill="#FFF" x="0" y="0" width="131" height="42" rx="4"/>
                            <g id="Text" transform="translate(39.000000, 12.600000)" fill="#C7D1D9">
                                <rect id="Name" x="0" y="0" width="73" height="6.3" rx="3"/>
                                <rect id="Name" x="0" y="10.5" width="49" height="6.3" rx="3"/>
                            </g>
                            <circle id="Avatar" fill="#C5CFD6" cx="21" cy="21" r="12"/>
                        </g>
                    </g>
                </g>
                <g id="Web" transform="translate(384.000000, 191.000000)">
                    <rect id="Container" fill="#F2F2F2" x="0" y="0" width="335" height="346" rx="8"/>
                    <rect id="Background" fill="#FFF" x="249" y="43" width="70" height="81" rx="8"/>
                    <g id="Profile-Info" transform="translate(259.000000, 58.000000)" fill="#C7D1D9">
                        <circle id="Avatar" cx="25" cy="16" r="16"/>
                        <rect id="Name" x="0" y="36" width="50" height="6" rx="3"/>
                        <rect id="Name" x="8" y="46" width="34" height="6" rx="3"/>
                    </g>
                    <path d="M8,0 L327,0 C331.418278,-8.11624501e-16 335,3.581722 335,8 L335,27 L335,27 L0,27 L0,8 C-5.41083001e-16,3.581722 3.581722,8.11624501e-16 8,0 Z" id="Header" fill="#C5CFD6"/>
                    <g id="Buttons" transform="translate(9.000000, 10.000000)" fill="#F2F2F2">
                        <circle id="buttons" cx="4" cy="4" r="4"/>
                        <circle id="buttons" cx="16" cy="4" r="4"/>
                        <circle id="buttons" cx="28" cy="4" r="4"/>
                    </g>
                    <g id="Components" transform="translate(249.000000, 132.000000)">
                        <rect id="Background" fill="#FFF" x="0" y="0" width="70" height="194" rx="8"/>
                        <g id="Rows" transform="translate(18.000000, 18.000000)">
                            <rect id="Data" fill="#C7D1D9" x="0" y="0" width="34" height="26" rx="4"/>
                            <rect id="Data" fill="#AFB9C5" x="0" y="34" width="34" height="25" rx="4"/>
                            <rect id="Data" fill="#C7D1D9" x="0" y="67" width="34" height="25" rx="4"/>
                            <rect id="Data" fill="#C7D1D9" x="0" y="133" width="34" height="25" rx="4"/>
                            <rect id="Data" fill="#C5CFD6" x="0" y="100" width="34" height="25" rx="4"/>
                        </g>
                    </g>
                    <g id="Rows" transform="translate(16.000000, 44.000000)">
                        <g id="Row">
                            <rect id="Container" fill="#FFF" x="0" y="0" width="225" height="47" rx="4"/>
                            <g id="Text-Stuff" transform="translate(9.000000, 14.100000)" fill="#C7D1D9">
                                <rect id="Label" x="0" y="0" width="167" height="7.05" rx="3"/>
                                <rect id="Label" x="0" y="11.75" width="112.096" height="7.05" rx="3"/>
                            </g>
                            <g id="Check" transform="translate(193.954198, 16.500000)">
                                <circle id="Background" fill="#C7D1D9" cx="7" cy="7" r="7"/>
                                <circle id="Indicator" fill="#F2F2F2" cx="7" cy="7" r="3"/>
                            </g>
                        </g>
                        <g id="Row" transform="translate(0.000000, 55.000000)">
                            <rect id="Container" fill="#FFF" x="0" y="0" width="225" height="39" rx="4"/>
                            <g id="Text-Stuff" transform="translate(9.000000, 11.700000)" fill="#C7D1D9">
                                <rect id="Label" x="0" y="0" width="167" height="5.85" rx="2.925"/>
                                <rect id="Label" x="0" y="9.75" width="112.096" height="5.85" rx="2.925"/>
                            </g>
                            <g id="Check" transform="translate(193.954198, 12.500000)">
                                <circle id="Background" fill="#C7D1D9" cx="7" cy="7" r="7"/>
                                <circle id="Indicator" fill="#F2F2F2" cx="7" cy="7" r="3"/>
                            </g>
                        </g>
                        <g id="Row" transform="translate(0.000000, 102.000000)">
                            <rect id="Container" fill="#FFF" x="0" y="0" width="225" height="39" rx="4"/>
                            <g id="Text-Stuff" transform="translate(9.000000, 11.700000)" fill="#C7D1D9">
                                <rect id="Label" x="0" y="0" width="167" height="5.85" rx="2.925"/>
                                <rect id="Label" x="0" y="9.75" width="112.096" height="5.85" rx="2.925"/>
                            </g>
                            <g id="Check" transform="translate(193.954198, 12.500000)">
                                <circle id="Background" fill="#C7D1D9" cx="7" cy="7" r="7"/>
                                <circle id="Indicator" fill="#AFB9C5" cx="7" cy="7" r="3"/>
                            </g>
                        </g>
                        <g id="Row" transform="translate(0.000000, 243.000000)">
                            <rect id="Container" fill="#FFF" x="0" y="0" width="225" height="39" rx="4"/>
                            <g id="Text-Stuff" transform="translate(9.000000, 11.700000)" fill="#C7D1D9">
                                <rect id="Label" x="0" y="0" width="167" height="5.85" rx="2.925"/>
                                <rect id="Label" x="0" y="9.75" width="112.096" height="5.85" rx="2.925"/>
                            </g>
                            <g id="Check" transform="translate(193.954198, 12.500000)">
                                <circle id="Background" fill="#C7D1D9" cx="7" cy="7" r="7"/>
                                <circle id="Indicator" fill="#F2F2F2" cx="7" cy="7" r="3"/>
                            </g>
                        </g>
                        <g id="Row" transform="translate(0.000000, 196.000000)">
                            <rect id="Container" fill="#FFF" x="0" y="0" width="225" height="39" rx="4"/>
                            <g id="Text-Stuff" transform="translate(9.000000, 11.700000)" fill="#C7D1D9">
                                <rect id="Label" x="0" y="0" width="167" height="5.85" rx="2.925"/>
                                <rect id="Label" x="0" y="9.75" width="112.096" height="5.85" rx="2.925"/>
                            </g>
                            <g id="Check" transform="translate(193.954198, 12.500000)">
                                <circle id="Background" fill="#C7D1D9" cx="7" cy="7" r="7"/>
                                <circle id="Indicator" fill="#F2F2F2" cx="7" cy="7" r="3"/>
                            </g>
                        </g>
                        <g id="Row" transform="translate(0.000000, 149.000000)">
                            <rect id="Container" fill="#FFF" x="0" y="0" width="225" height="39" rx="4"/>
                            <g id="Text-Stuff" transform="translate(9.000000, 11.700000)" fill="#C7D1D9">
                                <rect id="Label" x="0" y="0" width="167" height="5.85" rx="2.925"/>
                                <rect id="Label" x="0" y="9.75" width="112.096" height="5.85" rx="2.925"/>
                            </g>
                            <g id="Check" transform="translate(193.954198, 12.500000)">
                                <circle id="Background" fill="#C7D1D9" cx="7" cy="7" r="7"/>
                                <circle id="Indicator" fill="#F2F2F2" cx="7" cy="7" r="3"/>
                            </g>
                        </g>
                    </g>
                </g>
                <g id="Graph" transform="translate(520.000000, 114.000000)">
                    <rect id="Value" fill="#C7D1D9" x="0" y="32" width="6" height="25" rx="3"/>
                    <rect id="Value" fill="#C7D1D9" x="14" y="16" width="6" height="41" rx="3"/>
                    <rect id="Value" fill="#C7D1D9" x="28" y="8" width="6" height="49" rx="3"/>
                    <rect id="Value" fill="#C7D1D9" x="42" y="16" width="6" height="41" rx="3"/>
                    <rect id="Value" fill="#C5CFD6" x="56" y="0" width="6" height="57" rx="3"/>
                </g>
                <g id="Chart" transform="translate(801.000000, 467.000000)">
                    <path d="M37.7664728,37.179 C35.8448939,39.219 33.1227826,40.5 30.095205,40.5 C24.2778019,40.5 19.5618833,35.799 19.5618833,30 C19.5618833,24.201 24.2778019,19.5 30.095205,19.5 L30.095205,0 C13.5458518,0 0,13.503 0,30 C0,46.497 13.5458518,60 30.095205,60 C38.788205,60 46.6445583,56.334 52,50.502 L37.7664728,37.179 Z" id="Value" fill="#F2F2F2"/>
                    <path d="M30,0 L30,19.5 C35.799,19.5 40.5,24.201 40.5,30 L60,30 C60,13.503 46.497,0 30,0 Z" id="Value" fill="#AFB9C5"/>
                    <path d="M40.0969635,30 C40.0969635,33.4069834 38.4924726,36.4354131 36,38.3907651 L48.2618015,54 C55.3993366,48.4117535 60,39.7492845 60,30 L40.0969635,30 Z" id="Value" fill="#C5CFD6"/>
                </g>
                <g id="Chart" transform="translate(141.000000, 231.000000)">
                    <path d="M29.0511329,28.5039 C27.5729953,30.0679 25.4790636,31.05 23.1501577,31.05 C18.6752322,31.05 15.0476025,27.4459 15.0476025,23 C15.0476025,18.5541 18.6752322,14.95 23.1501577,14.95 L23.1501577,0 C10.419886,0 0,10.3523 0,23 C0,35.6477 10.419886,46 23.1501577,46 C29.8370808,46 35.8804294,43.1894 40,38.7182 L29.0511329,28.5039 Z" id="Value" fill="#F2F2F2"/>
                    <path d="M23,0 L23,14.95 C27.4459,14.95 31.05,18.5541 31.05,23 L46,23 C46,10.3523 35.6477,0 23,0 Z" id="Value" fill="#AFB9C5"/>
                    <path d="M31.0727226,23 C31.0727226,25.5552376 29.8693544,27.8265598 28,29.2930738 L37.1963511,41 C42.5495024,36.8088151 46,30.3119634 46,23 L31.0727226,23 Z" id="Value" fill="#C5CFD6"/>
                </g>
                <g id="Image" transform="translate(818.000000, 189.000000)">
                    <path d="M48.007,51.9862978 C48.003,51.9962978 47.999,52.0062978 47.993,52.0182978 C47.999,52.0082978 48.007,51.9682978 48.007,51.9862978" id="Fill-35" fill="#C5CFD6"/>
                    <path d="M47.9976864,52.0014952 C47.9976864,52.0034952 47.9956864,52.0074952 47.9956864,52.0114952 C47.9956864,52.0014952 48.0136864,51.9714952 47.9976864,52.0014952" id="Fill-37" fill="#C5CFD6"/>
                    <path d="M48.0671431,51.8323017 C48.0531431,51.8723017 48.0351431,51.9103017 48.0191431,51.9503017 C48.0271431,51.9303017 48.0351431,51.9143017 48.0431431,51.8943017 C47.8351431,52.4143017 47.9671431,52.0763017 48.0671431,51.8323017" id="Fill-39" fill="#C5CFD6"/>
                    <path d="M48.0223751,51.95275 C48.0143751,51.97075 48.0063751,51.99075 47.9983751,52.00875 C47.9403751,52.12075 48.0223751,51.95275 48.0223751,51.95275" id="Fill-41" fill="#C5CFD6"/>
                    <polygon id="Fill-43" fill="#C5CFD6" points="48 52.001 48 52.001 48 51.999"/>
                    <path d="M47.999,52.002 C47.999,52 47.999,52 48.001,51.998 C47.999,52 47.999,52 47.999,52.002" id="Fill-45" fill="#C5CFD6"/>
                    <path d="M47.9895117,52.0163509 C47.9775117,52.0403509 48.0455117,51.9243509 47.9895117,52.0163509" id="Fill-47" fill="#C5CFD6"/>
                    <path d="M47.998,52.002 L48.002,51.998 C48,52 48,52.002 47.998,52.002" id="Fill-49" fill="#C5CFD6"/>
                    <rect id="Photo-Background" fill="#C5CFD6" x="0" y="0" width="95" height="63" rx="4"/>
                    <polygon id="Mountains" fill="#AFB9C5" points="36 18 8 63 64 63"/>
                    <polygon id="Mountains" fill="#AFB9C5" points="63.5 30 39 63 88 63"/>
                    <circle id="Sun" fill="#FFF" cx="74" cy="21" r="9"/>
                </g>
                <g id="Image" transform="translate(219.000000, 527.000000) scale(-1, 1) translate(-219.000000, -527.000000) translate(148.000000, 480.000000)">
                    <path d="M71.007,76.9862978 C71.003,76.9962978 70.999,77.0062978 70.993,77.0182978 C70.999,77.0082978 71.007,76.9682978 71.007,76.9862978" id="Fill-35" fill="#C5CFD6"/>
                    <path d="M70.9976864,77.0014952 C70.9976864,77.0034952 70.9956864,77.0074952 70.9956864,77.0114952 C70.9956864,77.0014952 71.0136864,76.9714952 70.9976864,77.0014952" id="Fill-37" fill="#C5CFD6"/>
                    <path d="M71.0671431,76.8323017 C71.0531431,76.8723017 71.0351431,76.9103017 71.0191431,76.9503017 C71.0271431,76.9303017 71.0351431,76.9143017 71.0431431,76.8943017 C70.8351431,77.4143017 70.9671431,77.0763017 71.0671431,76.8323017" id="Fill-39" fill="#C5CFD6"/>
                    <path d="M71.0223751,76.95275 C71.0143751,76.97075 71.0063751,76.99075 70.9983751,77.00875 C70.9403751,77.12075 71.0223751,76.95275 71.0223751,76.95275" id="Fill-41" fill="#C5CFD6"/>
                    <polygon id="Fill-43" fill="#C5CFD6" points="71 77.001 71 77.001 71 76.999"/>
                    <path d="M70.999,77.002 C70.999,77 70.999,77 71.001,76.998 C70.999,77 70.999,77 70.999,77.002" id="Fill-45" fill="#C5CFD6"/>
                    <path d="M70.9895117,77.0163509 C70.9775117,77.0403509 71.0455117,76.9243509 70.9895117,77.0163509" id="Fill-47" fill="#C5CFD6"/>
                    <path d="M70.998,77.002 L71.002,76.998 C71,77 71,77.002 70.998,77.002" id="Fill-49" fill="#C5CFD6"/>
                    <rect id="Photo-Background" fill="#C7D1D9" x="0" y="0" width="142" height="94" rx="4"/>
                    <polygon id="Mountains" fill="#AFB9C5" points="52.7257937 27 11.6707937 94 93.7807937 94"/>
                    <polygon id="Mountains" fill="#C5CFD6" points="95.0557937 44.9464286 58.7607937 94 131.350794 94"/>
                    <circle id="Sun" fill="#FFF" cx="110.5" cy="31.5" r="13.5"/>
                </g>
            </g>
        </g>
        <g transform="translate(728.000000, 427.000000) scale(-1, 1) translate(-728.000000, -427.000000) translate(578.000000, 214.000000) scale(1 1)" id="Master/Pose/Standing">
            <g id="Master/Pose/Standing" stroke="none" stroke-width="1" fill="none" fill-rule="evenodd">
                <g id="Head/Front" transform="translate(82.000000, 0.000000) scale(1 1)">
                    <g id="Head/Front/Pony" stroke="none" stroke-width="1" fill="none" fill-rule="evenodd">
                        <g id="Head" transform="translate(54.000000, 31.000000)" fill="#eac7a8">
                            <path d="M38.1433414,9.13393292 C43.9381521,19.9350547 43.249578,47.3329958 35.7603014,49.2634576 C32.773664,50.0333035 26.4113241,48.1475566 19.935865,44.2446031 L24,73 L0,73 L8.26160177,34.4893378 C3.65406109,29.0807313 0.535660132,22.452516 1.05677633,15.0254539 C2.55833022,-6.37502057 32.3485306,-1.66718886 38.1433414,9.13393292 Z" id="SKIN"/>
                        </g>
                        <path d="M85,20 C90.5228475,20 95,24.4771525 95,30 C95,35.3410198 90.8127956,39.7040656 85.5419603,39.9855639 C82.52665,40.9159501 78.652205,41.5991191 74.3554723,41.8871633 C74.7731728,43.4546552 75,45.2371662 75,47.2515622 C75,49.0297471 74.8037305,50.9156116 74.4423323,52.830447 C73.5104419,51.7226907 72.2645499,51 71,51 C67.4624339,51 65,53.9101491 65,57 C65,60.921473 67.2638523,63.7583807 70.5686423,63.9853231 C67.5928462,69.6977453 63.4766199,74 59.3643383,74 C51.5536227,74 46,63.5572795 46,52.3295687 C46,51.9352687 46.0078091,51.5435904 46.0232171,51.1548362 C37.76115,56.8236574 31.3934269,68 20.4607455,68 C5.58722916,68 -0.31966425,38 20.4607455,38 C34.5937155,38 41.5452771,40.0606888 47.5363802,43.1079078 C48.717165,39.776125 50.5190091,36.9754084 52.7223037,35.019628 C53.2532741,34.4219859 54.0676154,33.8503284 55.1183254,33.3204668 L55.3390046,33.2026834 C55.9069881,32.9078805 56.491867,32.6638682 57.0909876,32.474461 C60.7039676,31.1456721 65.9406328,30.2079405 71.790603,30.003655 C72.8825295,29.9655241 73.954923,29.9543748 75.0010758,29.9684476 C75.0173488,24.4598244 79.4878505,20 85,20 Z" id="hair" fill="#4a312c"/>
                    </g>
                </g>
                <g id="Bottom/Standing" transform="translate(0.000000, 187.000000) scale(1 1)">
                    <g id="Bottom/Standing/Skinny Jeans Walk" stroke="none" stroke-width="1" fill="none" fill-rule="evenodd">
                        <polygon id="Leg" fill="#191847" points="128 0 176.081639 127.226909 209.783329 221 229 221 182.673688 9.81437154e-14"/>
                        <path d="M116.116628,0 C115.593979,43.6541888 115.971833,102.427468 114.754071,105.148648 C113.942229,106.962768 88.6908725,127.632305 39,167.157257 L48.9049803,184 C107.899481,145.955797 138.9048,124.399339 141.920937,119.330628 C146.445143,111.72756 169.1744,41.763137 181,0 L116.116628,0 Z" id="Leg" fill="#393f82"/>
                        <path d="M18.7225778,205.606482 L19.7225778,184.606482 L40.7225778,184.606482 C50.6801811,191.606482 63.6801811,197.273149 79.7225778,201.606482 L79.7225778,205.606482 L41.7225778,205.606482 L28.7225778,203.606482 L28.7225778,205.606482 L18.7225778,205.606482 Z" id="Shoe" fill="#191847" transform="translate(49.222578, 195.106482) rotate(50.000000) translate(-49.222578, -195.106482)"/>
                        <path d="M208,239 L209,218 L230,218 C239.957603,225 252.957603,230.666667 269,235 L269,239 L231,239 L218,237 L218,239 L208,239 Z" id="Shoe" fill="#191847"/>
                    </g>
                </g>
                <g id="Body" transform="translate(22.000000, 82.000000) scale(1 1)">
                    <g id="Body/Trench Coat" stroke="none" stroke-width="1" fill="none" fill-rule="evenodd">
                        <path d="M54.3748075,70.4422362 L71.7206892,74.8517457 C48.5010655,113.888004 36.0840272,134.518222 34.4695742,136.742401 C30.8370549,141.746803 33.4753713,151.405575 34.3717289,156.466114 C27.0159775,157.777312 30.4552622,146.986888 21.1392043,148.78923 C12.6359386,150.434324 5.23841582,155.412199 -2.21044035,147.785504 C-3.12623345,146.847846 -3.68533756,144.037711 -0.329858103,142.787288 C8.0298649,139.672029 20.4540206,133.669529 22.5472206,131.196025 C25.4016727,127.82296 36.0108683,107.571697 54.3748075,70.4422362 L54.3748075,70.4422362 Z M197.692975,90.2442388 L227.879596,115.83589 C236.347145,118.768177 243.354953,122.169788 248.90302,126.040723 C250.183668,127.382731 251.660283,130.022417 246.018183,129.189525 C240.376083,128.356632 234.403982,127.734299 233.485976,129.614404 C232.56797,131.49451 235.838922,134.048404 234.074175,136.548369 C232.897677,138.215012 228.219551,133.502554 220.039797,122.410996 L189.442799,107.140857 L197.692975,90.2442388 Z" id="SKIN" fill="#eac7a8" transform="translate(123.586250, 113.509597) rotate(-4.000000) translate(-123.586250, -113.509597)"/>
                        <path d="M138.264162,2.04144427 C153.1728,32.8586321 173.34952,62.4239679 203.321564,87.6788376 C207.426219,87.3835185 211.889688,88.0634542 216.675075,89.6758318 C219.030261,90.4693828 220.296216,93.0219384 219.502665,95.3771242 C219.041858,96.7447568 217.987913,97.7450999 216.723906,98.188165 C217.638754,98.8563073 218.562849,99.520867 219.495159,100.181671 L211.447983,116.609623 C177.58505,99.7255288 145.757134,86.9958405 131.253857,59.1215578 C126.386182,49.766228 128.033751,17.9882599 127.569134,6.42756866 L138.264162,2.04144427 Z" id="Back-Arm" fill="#e87613"/>
                        <path d="M90,113.909745 C121.438326,117.363418 146.183737,117.363418 164.236234,113.909745 C166.472817,113.481858 166.374598,103.840401 165.337385,101.207228 C149.185283,60.2018743 138.560302,30.1840325 138.560302,1.70263734 C135.596594,3.25072994 130.409827,3.48273097 123,2.39864042 C103.086202,31.7496339 93.9325378,65.4265407 90,113.909745 Z" id="Shirt" fill="#191847"/>
                        <path d="M126.348425,-1.0658141e-14 C123,44.2807404 169.249642,140.9549 153.190593,223.518112 C123.507857,230.146789 81.1319105,209.522766 39.8828129,226 C41.4177174,192.750378 72.1641281,153.689543 84.1591577,118.756122 C83.0907846,117.752921 82.5343434,116.247171 82.8078928,114.695795 L83.3288374,111.741372 C83.6816959,109.740212 85.3063314,108.28273 87.2249777,108.053567 C87.5631559,106.554137 87.8526566,105.063334 88.0917371,103.583451 C90.1104671,91.0877276 86.6615358,78.8352569 86.8232868,66.8032625 C70.7430616,80.5217718 56.3180199,104.211352 43.5479488,137.871041 L43.5479488,137.871041 L24.6611622,132.313477 C25.3819892,129.635524 26.1286459,126.990471 26.9011324,124.378317 C24.72195,123.144957 22.1728798,117.466228 24.0066041,116.516161 C25.8996562,115.535355 27.905105,114.844989 30.0170446,114.438594 C47.3349841,62.2796711 75.6543384,24.1331607 114.975674,-4.19220214e-13 L114.975674,-4.19220214e-13 Z" id="Coat-Front" fill="#ffa434"/>
                        <polygon id="Shade-Lapel" fill-opacity=".1" fill="#000" points="119.105759 1 113.946604 16.8654451 124.335997 28.7590435 114.946604 38.1055065 137.662251 77 109.883587 38.1832119 119.105759 28.7590435 109.883587 18.2484583"/>
                        <path d="M137,130 C139.209139,130 141,131.790861 141,134 C141,136.209139 139.209139,138 137,138 C134.790861,138 133,136.209139 133,134 C133,131.790861 134.790861,130 137,130 Z M136,107 C138.209139,107 140,108.790861 140,111 C140,113.209139 138.209139,115 136,115 C133.790861,115 132,113.209139 132,111 C132,108.790861 133.790861,107 136,107 Z M131,84 C133.209139,84 135,85.790861 135,88 C135,90.209139 133.209139,92 131,92 C128.790861,92 127,90.209139 127,88 C127,85.790861 128.790861,84 131,84 Z" id="Buttons" fill-opacity=".4" fill="#000"/>
                    </g>
                </g>
            </g>
        </g>
        <g transform="translate(378.000000, 214.000000) scale(1 1)" id="Master/Pose/Sitting">
            <g id="Master/Pose/Sitting" stroke="none" stroke-width="1" fill="none" fill-rule="evenodd">
                <g id="Head/Front" transform="translate(38.000000, 73.000000) scale(1 1)">
                    <g id="Head/Front/Bun and Mullet" stroke="none" stroke-width="1" fill="none" fill-rule="evenodd">
                        <g id="Head" transform="translate(54.000000, 31.000000)" fill="#915b3c">
                            <path d="M38.1433414,9.13393292 C43.9381521,19.9350547 43.249578,47.3329958 35.7603014,49.2634576 C32.773664,50.0333035 26.4113241,48.1475566 19.935865,44.2446031 L24,73 L0,73 L8.26160177,34.4893378 C3.65406109,29.0807313 0.535660132,22.452516 1.05677633,15.0254539 C2.55833022,-6.37502057 32.3485306,-1.66718886 38.1433414,9.13393292 Z" id="SKIN"/>
                        </g>
                        <path d="M82.6634951,28.3699763 C66,22.1431398 52.9320115,34.1745295 51.1990566,36.1553256 C49.36223,38.2548487 48.1395162,40.8784262 47.2353419,43.5466625 C46.2532361,46.4450442 45.6454006,49.4566043 45.4209456,52.525076 C45.2077438,55.4404668 45.187993,58.5235291 45.8714634,61.3766879 C46.5108389,64.0448435 47.8781623,66.233684 50.1607604,67.6222954 C51.2063292,68.2583997 52.331284,68.7362639 53.4627459,69.1730163 C54.5778253,69.6034004 55.6962731,70.021854 56.8643276,70.2633656 C59.0749653,70.7202709 61.6221325,70.641836 63.3249903,68.8822511 C63.9387204,68.2479202 64.6136933,67.450835 65.0614552,66.675918 C65.2224473,66.3972445 65.3195173,66.2149822 65.1239229,65.9425963 C64.8895924,65.6163621 64.5105756,65.3663863 64.2095669,65.1111707 C62.493006,63.6560549 61.4304424,61.7134822 61.1625814,59.4049338 C60.8908162,57.0626093 61.5200101,54.03928 63.7973259,53.0170472 C66.6084499,51.7551569 69.7042766,53.2035819 72.2028323,54.5537417 C73.264707,50.805958 75.4450295,47.4314855 78.8633764,45.7123675 C82.6451998,43.8105035 86.9847925,43.5879355 90.871188,41.9561196 C91.8839153,41.5308947 92.9153983,41.0481938 93.6610301,40.1817828 C93.9726032,39.8196765 94.3381465,39.3499541 94.4625461,38.871042 C94.625988,38.2419509 94.220254,37.7145107 93.9068437,37.2240711 C92.2450186,34.623629 89.0104959,30.7417318 82.6634951,28.3699763 Z" id="hair" fill="#e8e1e1"/>
                        <circle id="Oval" fill="#e8e1e1" cx="55" cy="25" r="15"/>
                        <path d="M51.9332952,66.1298903 C46.5324984,78.9058701 41.5557826,87.401027 37.0031476,91.6153611 C39.0010492,95.8491182 45.3018292,97.7112585 55.9054875,97.2017819 L61.9024912,69.1410521 L51.9332952,66.1298903 Z" id="Path-5" fill="#e8e1e1"/>
                    </g>
                </g>
                <g id="Bottom/Sitting" transform="translate(-44.000000, 260.000000) scale(1 1)">
                    <g id="Bottom/Sitting/Skinny Jeans 1" stroke="none" stroke-width="1" fill="none" fill-rule="evenodd">
                        <g id="Objects/Seat" transform="translate(10.000000, 42.000000) scale(1 1)">
                            <g id="Objects/Seat/Cube" stroke="none" stroke-width="1" fill="none" fill-rule="evenodd">
                                <g id="Seat" transform="translate(55.000000, 0.000000)">
                                    <polygon id="Seat-Stuff" fill="#C5CFD6" points="27.6226415 0 104.877193 0 115 124 0 124"/>
                                    <polygon id="Seat-Stuff" fill-opacity=".1" fill="#000" points="27.6226415 0 51.3828011 0 65.6037736 124 0 124"/>
                                </g>
                            </g>
                        </g>
                        <path d="M257.954028,20.756908 L258.24189,20.5887017 C266.50855,15.9575335 280.00938,22.2466943 280.000005,29.2384154 C279.971611,50.4029106 260.656682,150.1511 259.648224,156.456711 C258.639766,162.762321 247.83665,164.42787 247.20755,156.477375 C246.206544,143.826795 244.3468,100.033121 246.20755,79.7626522 C246.975689,71.3947628 247.802939,63.4254961 248.617343,56.3158982 C238.483775,74.6174738 222.808496,100.823961 201.593128,134.933778 L190.076573,129.672175 C199.120166,99.8760987 206.535776,78.8408618 212.323403,66.5664641 C222.233227,45.5497154 231.525307,27.551672 235.436043,21.2120072 C241.587899,11.2392801 252.296386,14.7194928 257.954028,20.756908 Z" id="LegBack" fill="#915b3c"/>
                        <path d="M208.819223,123.340112 L213.936922,21.8299349 C217.625361,4.27739957 248.84365,12.4235349 248.830816,21.8299349 C248.801666,43.1853748 235.973522,116.956762 235.964839,123.319261 L208.819223,123.340112 Z" id="LegLower" fill="#1820bf" transform="translate(228.825019, 67.419630) rotate(20.000000) translate(-228.825019, -67.419630)"/>
                        <path d="M182.995119,136.879166 C181.876365,139.865652 181.316987,142.100234 181.316987,143.582912 C181.316987,145.386198 181.617402,148.017641 182.21823,151.477241 C184.310168,151.477241 203.110773,151.477241 238.620042,151.477241 C240.085725,146.631749 239.239648,144.015823 236.08181,143.629464 C232.923972,143.243106 230.300703,142.894255 228.212002,142.582912 L201.99698,130.896125 C201.492551,130.671248 200.901331,130.89787 200.676454,131.402299 C200.672607,131.410928 200.668883,131.419612 200.665282,131.428346 L198.9802,135.515936 L198.9802,135.515936 C196.056869,136.879893 193.681358,137.561872 191.853668,137.561872 C190.368714,137.561872 188.31798,136.962147 185.701465,135.762696 L185.701471,135.762684 C184.69737,135.302389 183.510243,135.743231 183.049947,136.747331 C183.030108,136.790609 183.01182,136.834582 182.995119,136.879166 Z" id="shoe" fill="#E4E4E4" transform="translate(210.316987, 140.977241) rotate(30.000000) translate(-210.316987, -140.977241)"/>
                        <path d="M244.678132,151.401924 C243.559377,154.388411 243,156.622993 243,158.105671 C243,159.908957 243.300414,162.5404 243.901243,166 C245.993181,166 264.793785,166 300.303055,166 C301.768738,161.154507 300.922661,158.538582 297.764823,158.152223 C294.606985,157.765865 291.983716,157.417014 289.895014,157.105671 L263.679993,145.418883 C263.175563,145.194006 262.584344,145.420628 262.359467,145.925057 C262.35562,145.933687 262.351895,145.94237 262.348295,145.951105 L260.663213,150.038695 L260.663213,150.038695 C257.739881,151.402652 255.364371,152.084631 253.536681,152.084631 C252.051727,152.084631 250.000992,151.484905 247.384478,150.285455 L247.384483,150.285443 C246.380383,149.825148 245.193255,150.265989 244.73296,151.27009 C244.713121,151.313368 244.694833,151.357341 244.678132,151.401924 Z" id="shoe" fill="#E4E4E4"/>
                        <path d="M282.770373,36.4330278 C282.770373,63 270.1536,124.970293 270.145616,130.820112 L243,130.840963 C246.973277,75.5454811 248.382172,47.5998928 247.226683,47.0041979 C245.49345,46.1106556 176.175838,53.9250306 155.386358,53.9250306 C125.407825,53.9250306 113.006307,35.0203971 112,-4.40536496e-13 L171.386358,-4.40536496e-13 C183.477954,1.29386693 246.548825,14.0152568 269.972097,18.3884129 C280,20.2606358 282.770373,29.1145109 282.770373,36.4330278 Z" id="Leg-and-Butt" fill="#2b44ff"/>
                    </g>
                </g>
                <g id="Body" transform="translate(-22.000000, 155.000000) scale(1 1)">
                    <g id="Body/Long Sleeve" stroke="none" stroke-width="1" fill="none" fill-rule="evenodd">
                        <path d="M67.9697919,74.4496834 L89.8671837,74.5318631 C65.8560993,128.56567 53.3363474,156.856914 52.3079281,159.405597 C49.9939846,165.140133 54.8906002,173.873732 56.9845874,178.567103 C50.1645409,181.61887 50.8912241,170.316929 42.2879189,174.319492 C34.4352209,177.972846 28.4616931,184.59248 19.3890352,178.994371 C18.2736052,178.306117 17.0512757,175.714714 20.0045784,173.68967 C27.3623323,168.644547 37.9653015,159.814672 39.3979297,156.908251 C41.3515741,152.944826 50.8755281,125.458637 67.9697919,74.4496834 L67.9697919,74.4496834 Z M253.693154,55.3151968 C249.269111,59.00334 244.780296,63.0831966 245.568527,65.0514942 C246.356757,67.0197919 250.471061,66.2874533 251.152638,69.3148625 C251.607023,71.3331352 244.929759,71.6610844 231.120845,70.2987101 L199.083874,83 L192,65.3107899 L231.482876,59.9251648 C239.381053,55.5320264 246.646993,52.5579486 253.280695,51.0029313 C255.147488,50.9484265 258.117196,51.6270536 253.693154,55.3151968 Z" id="SKIN" fill="#784931"/>
                        <path d="M123.473568,9.66927317 L140.652814,9.31280705 C148.188654,47.0006412 173.203746,69.0336905 223.790464,56.4079457 L234.893349,104.819132 C187.489073,115.210412 143.760505,99.6935282 130.595778,48.4746485 C127.187846,35.2156986 124.201379,21.3681777 123.473568,9.66927317 Z" id="Clothes-Back" fill="#e87613" transform="translate(179.183459, 58.591470) rotate(5.000000) translate(-179.183459, -58.591470)"/>
                        <path d="M119.477154,0 L119.490636,0.016 L145.467604,5.96527657 C145.467604,50.1976331 159.4168,78.578721 166.778942,111.015796 L167,112 L96.8436466,112.000086 C95.8553764,123.350958 95.2484879,135.017596 94.9322404,147 L94.9322404,147 L42.4016357,147 C54.3053653,83.6639633 79.4301113,34.6639633 117.775873,0 L117.775873,0 L119.477154,0 Z" id="Clothes" fill="#ffa434"/>
                        <path d="M107.912412,48.2598889 C106.10448,76.1008541 107.167824,97.3475578 111.102445,112 L111.102445,112 L96.8437337,111.999086 C98.758489,90.0075171 102.104834,69.2012293 107.54268,49.5802231 Z" id="Shade" fill-opacity=".1" fill="#000"/>
                    </g>
                </g>
            </g>
        </g>
        <g transform="translate(170.000000, 214.000000) scale(1 1)" id="Master/Pose/Standing">
            <g id="Master/Pose/Standing" stroke="none" stroke-width="1" fill="none" fill-rule="evenodd">
                <g id="Head/Front" transform="translate(82.000000, 0.000000) scale(1 1)">
                    <g id="Head/Front/Afro" stroke="none" stroke-width="1" fill="none" fill-rule="evenodd">
                        <path d="M61,77.7068588 C72.4289379,77.7068588 76.5854974,64.0240838 83.0786187,56.5153483 C87.7243138,51.143002 95.6530795,52.7449442 98,45.2237762 C103.901542,26.3111237 88.1061086,13 67.5,13 C46.8938914,13 33,24.6742524 30,42.2237762 C27,59.7733 40.3938914,77.7068588 61,77.7068588 Z" id="Hair-Back" fill="#e8e1e1"/>
                        <g id="Head" transform="translate(54.000000, 31.000000)" fill="#eac7a8">
                            <path d="M38.1433414,9.13393292 C43.9381521,19.9350547 43.249578,47.3329958 35.7603014,49.2634576 C32.773664,50.0333035 26.4113241,48.1475566 19.935865,44.2446031 L24,73 L0,73 L8.26160177,34.4893378 C3.65406109,29.0807313 0.535660132,22.452516 1.05677633,15.0254539 C2.55833022,-6.37502057 32.3485306,-1.66718886 38.1433414,9.13393292 Z" id="SKIN"/>
                        </g>
                        <path d="M93.5831606,40.1945268 C88.9933309,41.0561444 79.749454,45.438095 72.3793005,51.7237673 C71.507977,51.2620835 70.5087281,51 69.4466684,51 C66.0464589,51 63.2900445,53.6862915 63.2900445,57 C63.2900445,58.352507 63.7492372,59.6004922 64.5239753,60.6039629 C63.065081,63.0086601 62.0695654,65.5348236 61.7432388,68.1317726 C56.6870351,68.1317726 38.2335803,49 56.6167901,31 C75,13 101.566014,38.6959598 93.5831606,40.1945268 Z" id="Hair" fill="#e8e1e1"/>
                    </g>
                </g>
                <g id="Bottom/Standing" transform="translate(0.000000, 187.000000) scale(1 1)">
                    <g id="Bottom/Standing/Jogging" stroke="none" stroke-width="1" fill="none" fill-rule="evenodd">
                        <polygon id="SKIN" fill="#dcae92" points="130 0 204.306413 124.226909 260.014844 229.25029 272.013946 229.25029 178.673688 5.090379e-13"/>
                        <g id="Right" transform="translate(251.000000, 218.000000)" fill="#E4E4E4">
                            <path d="M1.67813181,6.40192425 C0.559377268,9.38841089 0,11.6229931 0,13.1056708 C0,14.908957 0.300414205,17.5404001 0.901242614,21 C2.99318117,21 21.7937852,21 57.3030548,21 C58.768738,16.1545073 57.9226607,13.5385816 54.7648228,13.1522232 C51.606985,12.7658647 48.9837155,12.4170139 46.8950143,12.1056708 L20.6799926,0.41888346 C20.1755635,0.194006431 19.584344,0.4206282 19.359467,0.925057349 C19.35562,0.933686736 19.3518954,0.94237021 19.3482945,0.951105155 L17.6632131,5.03869504 L17.6632131,5.03869504 C14.7398812,6.40265216 12.3643706,7.08463071 10.5366811,7.08463071 C9.05172687,7.08463071 7.00099246,6.48490544 4.38447792,5.28545491 L4.38448339,5.28544297 C3.38038273,4.82514778 2.19325534,5.26598921 1.73296014,6.27008987 C1.71312074,6.31336808 1.69483298,6.35734088 1.67813181,6.40192425 Z" id="shoe"/>
                        </g>
                        <path d="M244.543057,212.432889 L267.683113,205.432889 C257.544824,175.124875 245.118911,141.772016 230.405374,105.374313 C215.691837,68.97661 199.890046,33.851839 183,2.84217094e-14 L117.644073,2.84217094e-14 C136.422172,42.821022 156.329475,81.7294172 177.365982,116.725186 C198.402489,151.720954 220.794847,183.623522 244.543057,212.432889 Z" id="Pant" fill="#191847"/>
                        <path d="M125.116628,2.84217094e-14 C118.103498,43.6541888 104.577091,99.4274685 103.300563,101.148648 C102.449544,102.296102 71.8126514,112.562199 11.3898843,131.94694 L13.9818352,142.527938 C86.0358431,132.131776 124.00216,124.066006 127.880787,118.330628 C133.698727,109.72756 162.748486,41.763137 174,2.84217094e-14 L125.116628,2.84217094e-14 Z" id="SKIN" fill="#eac7a8"/>
                        <path d="M32.6295078,122.800477 L37.1949469,139.841939 C91.0871466,144.568621 124.108088,141.153296 136.25777,129.595966 C148.407453,118.038636 162.254504,74.839981 177.798925,-1.13686838e-13 L115.478146,-1.13686838e-13 C105.629567,61.2838742 100.12357,93.2121259 98.9601559,95.7847551 C97.7967416,98.3573843 75.6865256,107.362625 32.6295078,122.800477 Z" id="Pant" fill="#393f82"/>
                        <g id="Left" transform="translate(15.057502, 155.157254) rotate(80.000000) translate(-15.057502, -155.157254) translate(-13.942498, 144.657254)" fill="#E4E4E4">
                            <path d="M1.67813181,6.40192425 C0.559377268,9.38841089 0,11.6229931 0,13.1056708 C0,14.908957 0.300414205,17.5404001 0.901242614,21 C2.99318117,21 21.7937852,21 57.3030548,21 C58.768738,16.1545073 57.9226607,13.5385816 54.7648228,13.1522232 C51.606985,12.7658647 48.9837155,12.4170139 46.8950143,12.1056708 L20.6799926,0.41888346 C20.1755635,0.194006431 19.584344,0.4206282 19.359467,0.925057349 C19.35562,0.933686736 19.3518954,0.94237021 19.3482945,0.951105155 L17.6632131,5.03869504 L17.6632131,5.03869504 C14.7398812,6.40265216 12.3643706,7.08463071 10.5366811,7.08463071 C9.05172687,7.08463071 7.00099246,6.48490544 4.38447792,5.28545491 L4.38448339,5.28544297 C3.38038273,4.82514778 2.19325534,5.26598921 1.73296014,6.27008987 C1.71312074,6.31336808 1.69483298,6.35734088 1.67813181,6.40192425 Z" id="shoe"/>
                        </g>
                    </g>
                </g>
                <g id="Body" transform="translate(22.000000, 82.000000) scale(1 1)">
                    <g id="Body/Jacket" stroke="none" stroke-width="1" fill="none" fill-rule="evenodd">
                        <path d="M68.3079281,93.0198914 L89.2053198,93.1020711 C76.3021447,134.755739 69.3363474,156.856914 68.3079281,159.405597 C65.9939846,165.140133 70.8906002,173.873732 72.9845874,178.567103 C66.1645409,181.61887 66.8912241,170.316929 58.2879189,174.319492 C50.4352209,177.972846 44.4616931,184.59248 35.3890352,178.994371 C34.2736052,178.306117 33.0512757,175.714714 36.0045784,173.68967 C43.3623323,168.644547 53.9653015,159.814672 55.3979297,156.908251 C57.3515741,152.944826 61.6549068,131.648706 68.3079281,93.0198914 L68.3079281,93.0198914 Z M194.04441,89.1225115 L222.372314,116.757535 C230.61469,120.273345 237.368143,124.155511 242.632673,128.40403 C243.816587,129.832102 245.10547,132.568362 239.535214,131.343925 C233.964957,130.119488 228.050816,129.082079 227.003896,130.893567 C225.956977,132.705055 229.041811,135.480899 227.106974,137.851671 C225.817082,139.432186 221.479076,134.404878 214.092956,122.769747 L184.635682,105.402467 L194.04441,89.1225115 Z" id="SKIN" fill="#eac7a8"/>
                        <path d="M122.01899,9.23199981 L130.503942,7.00082913 C148.576175,42.7520052 177.414525,74.1501034 217.01899,101.195124 L192.061793,137.56505 C151.33882,97.6857553 124.670571,55.1985909 122.01899,9.23199981 Z" id="Coat-Back" fill="#c21b15" transform="translate(169.518990, 72.282940) rotate(5.000000) translate(-169.518990, -72.282940)"/>
                        <path d="M90,114 L167,114 C149.16087,70.6251468 140.241304,33.7787236 140.241304,3.4607303 L117.014208,0 C98.7598929,29.3584068 93.6048263,65.5045499 90,114 Z" id="Shirt" fill="#C7D1D9"/>
                        <path d="M118.047752,-4.26325641e-14 C119.86198,0.0624731357 122.625282,0.175030894 126.337658,0.337673275 L126.337658,0.337673275 L131.950158,16.3768801 C132.543836,35.9324229 136.010826,75.3421183 142.351127,134.605966 L142.351127,134.605966 L91.8760675,134.60553 C92.008386,138.698782 92.2265651,142.830272 92.5306047,147 L92.5306047,147 L55,147 C60.6139164,83.6639633 81.1152373,34.6639633 116.503963,1.42108547e-14 L116.503963,1.42108547e-14 L116.522,0.017 L116.531583,-4.26325641e-14 Z" id="Coat-Front" fill="#ff4133"/>
                        <path d="M106,135 L91.889057,134.999288 C91.2713571,116.643048 92.3783198,99.0548837 95.2099449,82.2347951 C96.6469231,107.748771 100.243477,125.3371 106,135 Z" id="Shade" fill-opacity=".1" fill="#000"/>
                        <polygon id="Light" fill-opacity=".2" fill="#FFF" points="103.110899 104 128 92.4292718 128 104"/>
                    </g>
                </g>
            </g>
        </g>
    </g>
</svg>
